<svg width="0" height="0" class="hidden">
  <symbol version="1.1" xmlns="http://www.w3.org/2000/svg" xmlns:xlink="http://www.w3.org/1999/xlink" viewBox="0 0 700 700" id="noun-button-1999859">
    <defs>
      <symbol id="l" overflow="visible">
        <path d="m38.281-2.2812c-1.9688 1.0234-4.0273 1.793-6.1719 2.3125-2.1367 0.51953-4.3672 0.78125-6.6875 0.78125-6.9375 0-12.438-1.9375-16.5-5.8125-4.0547-3.8828-6.0781-9.1445-6.0781-15.781 0-6.6641 2.0234-11.938 6.0781-15.812 4.0625-3.875 9.5625-5.8125 16.5-5.8125 2.3203 0 4.5508 0.26172 6.6875 0.78125 2.1445 0.52344 4.2031 1.293 6.1719 2.3125v8.625c-1.9922-1.3633-3.9531-2.3594-5.8906-2.9844-1.9375-0.63281-3.9766-0.95312-6.1094-0.95312-3.8359 0-6.8516 1.2305-9.0469 3.6875-2.1875 2.4492-3.2812 5.8359-3.2812 10.156 0 4.293 1.0938 7.668 3.2812 10.125 2.1953 2.4609 5.2109 3.6875 9.0469 3.6875 2.1328 0 4.1719-0.31641 6.1094-0.95312 1.9375-0.63281 3.8984-1.6289 5.8906-2.9844z"></path>
      </symbol>
      <symbol id="h" overflow="visible">
        <path d="m28.016-22.734c-0.875-0.41406-1.7461-0.71875-2.6094-0.90625-0.86719-0.19531-1.7344-0.29688-2.6094-0.29688-2.5742 0-4.5547 0.82422-5.9375 2.4688-1.3867 1.6484-2.0781 4.0078-2.0781 7.0781v14.391h-9.9844v-31.25h9.9844v5.1406c1.2891-2.0508 2.7656-3.5469 4.4219-4.4844 1.6641-0.9375 3.6602-1.4062 5.9844-1.4062 0.34375 0 0.70703 0.015625 1.0938 0.046875 0.39453 0.023437 0.96094 0.078125 1.7031 0.17188z"></path>
      </symbol>
      <symbol id="b" overflow="visible">
        <path d="m35.984-15.703v2.8438h-23.344c0.23828 2.3438 1.082 4.1055 2.5312 5.2812 1.457 1.168 3.4883 1.75 6.0938 1.75 2.0938 0 4.2422-0.3125 6.4531-0.9375 2.207-0.625 4.4727-1.5664 6.7969-2.8281v7.7031c-2.3672 0.88672-4.7305 1.5586-7.0938 2.0156-2.3555 0.45703-4.7148 0.6875-7.0781 0.6875-5.6562 0-10.055-1.4375-13.188-4.3125-3.1367-2.875-4.7031-6.9062-4.7031-12.094 0-5.0938 1.5352-9.0977 4.6094-12.016 3.082-2.9258 7.3203-4.3906 12.719-4.3906 4.9062 0 8.832 1.4805 11.781 4.4375 2.9453 2.9609 4.4219 6.9141 4.4219 11.859zm-10.266-3.3281c0-1.8945-0.55469-3.4219-1.6562-4.5781-1.1055-1.1641-2.5547-1.75-4.3438-1.75-1.9297 0-3.4961 0.54688-4.7031 1.6406-1.2109 1.0859-1.9648 2.6484-2.2656 4.6875z"></path>
      </symbol>
      <symbol id="a" overflow="visible">
        <path d="m18.812-14.062c-2.0859 0-3.6523 0.35547-4.7031 1.0625-1.0547 0.71094-1.5781 1.75-1.5781 3.125 0 1.2617 0.42188 2.25 1.2656 2.9688s2.0195 1.0781 3.5312 1.0781c1.875 0 3.4531-0.67188 4.7344-2.0156 1.2891-1.3516 1.9375-3.0469 1.9375-5.0781v-1.1406zm15.25-3.7656v17.828h-10.062v-4.625c-1.3438 1.8984-2.8555 3.2773-4.5312 4.1406-1.668 0.86328-3.7031 1.2969-6.1094 1.2969-3.2305 0-5.8555-0.94141-7.875-2.8281-2.0234-1.8945-3.0312-4.3477-3.0312-7.3594 0-3.6641 1.2578-6.3516 3.7812-8.0625 2.5195-1.707 6.4766-2.5625 11.875-2.5625h5.8906v-0.78125c0-1.582-0.625-2.7383-1.875-3.4688-1.25-0.73828-3.1953-1.1094-5.8281-1.1094-2.1484 0-4.1406 0.21484-5.9844 0.64062-1.8359 0.42969-3.543 1.0703-5.125 1.9219v-7.6094c2.1328-0.51953 4.2812-0.91406 6.4375-1.1875 2.1641-0.26953 4.3281-0.40625 6.4844-0.40625 5.6328 0 9.7031 1.1172 12.203 3.3438 2.5 2.2188 3.75 5.8281 3.75 10.828z"></path>
      </symbol>
      <symbol id="g" overflow="visible">
        <path d="m15.703-40.125v8.875h10.297v7.1406h-10.297v13.25c0 1.4609 0.28516 2.4453 0.85938 2.9531 0.58203 0.51172 1.7266 0.76562 3.4375 0.76562h5.1406v7.1406h-8.5625c-3.9492 0-6.7461-0.82031-8.3906-2.4688-1.6484-1.6445-2.4688-4.4414-2.4688-8.3906v-13.25h-4.9688v-7.1406h4.9688v-8.875z"></path>
      </symbol>
      <symbol id="f" overflow="visible">
        <path d="m26.062-26.672v-16.734h10.047v43.406h-10.047v-4.5156c-1.375 1.8438-2.8906 3.1953-4.5469 4.0469s-3.5742 1.2812-5.75 1.2812c-3.8555 0-7.0234-1.5312-9.5-4.5938-2.4688-3.0625-3.7031-7-3.7031-11.812 0-4.8203 1.2344-8.7578 3.7031-11.812 2.4766-3.0625 5.6445-4.5938 9.5-4.5938 2.1562 0 4.0664 0.43359 5.7344 1.2969 1.6641 0.86719 3.1875 2.2109 4.5625 4.0312zm-6.5938 20.234c2.1445 0 3.7812-0.78125 4.9062-2.3438s1.6875-3.832 1.6875-6.8125c0-2.9766-0.5625-5.25-1.6875-6.8125s-2.7617-2.3438-4.9062-2.3438c-2.1172 0-3.7344 0.78125-4.8594 2.3438s-1.6875 3.8359-1.6875 6.8125c0 2.9805 0.5625 5.25 1.6875 6.8125s2.7422 2.3438 4.8594 2.3438z"></path>
      </symbol>
      <symbol id="e" overflow="visible">
        <path d="m21.422-6.4375c2.1445 0 3.7812-0.78125 4.9062-2.3438s1.6875-3.832 1.6875-6.8125c0-2.9766-0.5625-5.25-1.6875-6.8125s-2.7617-2.3438-4.9062-2.3438c-2.1367 0-3.7773 0.78906-4.9219 2.3594-1.1484 1.5742-1.7188 3.8398-1.7188 6.7969 0 2.9609 0.57031 5.2266 1.7188 6.7969 1.1445 1.5742 2.7852 2.3594 4.9219 2.3594zm-6.6406-20.234c1.3828-1.8203 2.9102-3.1641 4.5781-4.0312 1.6758-0.86328 3.6016-1.2969 5.7812-1.2969 3.8438 0 7 1.5312 9.4688 4.5938 2.4766 3.0547 3.7188 6.9922 3.7188 11.812 0 4.8125-1.2422 8.75-3.7188 11.812-2.4688 3.0625-5.625 4.5938-9.4688 4.5938-2.1797 0-4.1055-0.43359-5.7812-1.2969-1.668-0.86328-3.1953-2.207-4.5781-4.0312v4.5156h-9.9844v-43.406h9.9844z"></path>
      </symbol>
      <symbol id="d" overflow="visible">
        <path d="m20.5-23.188c2.2578 0 3.875-0.41406 4.8438-1.25 0.97656-0.84375 1.4688-2.2227 1.4688-4.1406 0-1.8945-0.49219-3.25-1.4688-4.0625-0.96875-0.82031-2.5859-1.2344-4.8438-1.2344h-4.5156v10.688zm-4.5156 7.4219v15.766h-10.734v-41.656h16.406c5.4766 0 9.4922 0.92188 12.047 2.7656 2.5625 1.8438 3.8438 4.7578 3.8438 8.7344 0 2.75-0.66797 5.0117-2 6.7812-1.3242 1.7617-3.3242 3.0625-6 3.9062 1.4688 0.33594 2.7812 1.0938 3.9375 2.2812 1.1641 1.1797 2.3477 2.9648 3.5469 5.3594l5.8281 11.828h-11.438l-5.0781-10.344c-1.0312-2.082-2.0742-3.5039-3.125-4.2656-1.043-0.76953-2.4375-1.1562-4.1875-1.1562z"></path>
      </symbol>
      <symbol id="c" overflow="visible">
        <path d="m19.672-24.859c-2.2188 0-3.9141 0.79688-5.0781 2.3906-1.1562 1.5859-1.7344 3.875-1.7344 6.875 0 2.9922 0.57812 5.2812 1.7344 6.875 1.1641 1.5938 2.8594 2.3906 5.0781 2.3906 2.1758 0 3.8359-0.79688 4.9844-2.3906 1.1562-1.5938 1.7344-3.8828 1.7344-6.875 0-3-0.57812-5.2891-1.7344-6.875-1.1484-1.5938-2.8086-2.3906-4.9844-2.3906zm0-7.1406c5.375 0 9.5703 1.4531 12.594 4.3594 3.0195 2.8984 4.5312 6.9141 4.5312 12.047 0 5.1367-1.5117 9.1562-4.5312 12.062-3.0234 2.8984-7.2188 4.3438-12.594 4.3438-5.3984 0-9.6172-1.4453-12.656-4.3438-3.043-2.9062-4.5625-6.9258-4.5625-12.062 0-5.1328 1.5195-9.1484 4.5625-12.047 3.0391-2.9062 7.2578-4.3594 12.656-4.3594z"></path>
      </symbol>
      <symbol id="k" overflow="visible">
        <path d="m33.766-26.062c1.2578-1.9258 2.7578-3.3945 4.5-4.4062 1.7383-1.0195 3.6484-1.5312 5.7344-1.5312 3.5938 0 6.3281 1.1094 8.2031 3.3281 1.875 2.2109 2.8125 5.4219 2.8125 9.6406v19.031h-10.047v-16.297c0.019531-0.23828 0.035156-0.48828 0.046875-0.75 0.007813-0.25781 0.015625-0.62891 0.015625-1.1094 0-2.2188-0.32812-3.8203-0.98438-4.8125-0.64844-1-1.6953-1.5-3.1406-1.5-1.8984 0-3.3672 0.78125-4.4062 2.3438-1.0312 1.5625-1.5625 3.8242-1.5938 6.7812v15.344h-10.047v-16.297c0-3.457-0.29688-5.6797-0.89062-6.6719-0.59375-1-1.6562-1.5-3.1875-1.5-1.918 0-3.3984 0.78906-4.4375 2.3594-1.043 1.5742-1.5625 3.8203-1.5625 6.7344v15.375h-10.031v-31.25h10.031v4.5781c1.2266-1.7695 2.6406-3.0977 4.2344-3.9844 1.5938-0.89453 3.3477-1.3438 5.2656-1.3438 2.1562 0 4.0547 0.52344 5.7031 1.5625 1.6562 1.043 2.9141 2.5 3.7812 4.375z"></path>
      </symbol>
      <symbol id="j" overflow="visible">
        <path d="m4.7969-31.25h9.9844v31.25h-9.9844zm0-12.156h9.9844v8.1406h-9.9844z"></path>
      </symbol>
      <symbol id="i" overflow="visible">
        <path d="m36.219-19.031v19.031h-10.047v-14.562c0-2.6953-0.0625-4.5547-0.1875-5.5781-0.11719-1.0195-0.32422-1.7734-0.625-2.2656-0.38672-0.64453-0.91797-1.1484-1.5938-1.5156-0.66797-0.36328-1.4297-0.54688-2.2812-0.54688-2.0859 0-3.7266 0.80859-4.9219 2.4219-1.1875 1.6055-1.7812 3.8281-1.7812 6.6719v15.375h-9.9844v-31.25h9.9844v4.5781c1.5078-1.8203 3.1094-3.1641 4.7969-4.0312 1.6953-0.86328 3.5664-1.2969 5.6094-1.2969 3.6133 0 6.3516 1.1094 8.2188 3.3281 1.875 2.2109 2.8125 5.4219 2.8125 9.6406z"></path>
      </symbol>
    </defs>
    <g>
      <path d="m350.11 406.63 16.117 16.113 142.74-142.74-142.74-142.74-16.117 16.113 115.2 115.2h-258.17v22.859h258.17z"></path>
      <path d="m214.91 525.71 16.57-29.941v-0.003907c-25.016-13.816-47.445-31.875-66.285-53.371l-25.715 22.855v0.003906c21.398 24.426 46.93 44.891 75.43 60.457z"></path>
      <path d="m306 38.172-6.0586-33.715c-32.207 5.7578-63.156 17.129-91.426 33.602l17.371 29.602v-0.003906c24.754-14.48 51.879-24.465 80.113-29.484z"></path>
      <path d="m591.48 234.52 33.715-5.9453c-6.0195-32.023-17.625-62.738-34.285-90.742l-29.484 17.145c14.613 24.543 24.785 51.469 30.055 79.543z"></path>
      <path d="m270.46 512.57-11.43 32.457c29.324 10 60.105 15.059 91.086 14.973h5.6016l-0.6875-34.285h-5.0273c-27.055 0.011718-53.93-4.4258-79.543-13.145z"></path>
      <path d="m536.74 120.34 26.059-22.285c-21.129-24.773-46.422-45.656-74.742-61.715l-16.914 29.828c24.852 14.098 47.055 32.434 65.598 54.172z"></path>
      <path d="m432.4 48.457 11.43-32.344c-30.375-10.797-62.391-16.246-94.629-16.113h-1.0273l1.8281 34.285c28.074-0.011718 55.945 4.7812 82.398 14.172z"></path>
      <path d="m403.48 554.86c31.91-6.043 62.508-17.648 90.402-34.285l-17.602-29.141c-24.469 14.664-51.309 24.953-79.312 30.398z"></path>
      <path d="m104.29 285.71v-5.9414-0.003907c-0.039062-28.562 4.9141-56.91 14.629-83.77l-32.23-11.43h0.003906c-11.094 30.594-16.742 62.891-16.688 95.43v6.8555z"></path>
      <path d="m75.371 335.09c6.375 31.938 18.328 62.5 35.316 90.285l29.258-17.828h-0.003906c-14.844-24.391-25.289-51.195-30.855-79.199z"></path>
      <path d="m595.71 277.03v2.9727c0.039062 27.543-4.5586 54.898-13.602 80.914l32.344 11.43c10.324-29.691 15.582-60.91 15.543-92.344v-3.4297z"></path>
      <path d="m191.48 92.23-22.172-26.172c-24.832 21.023-45.828 46.195-62.055 74.398l29.715 17.145c14.227-24.801 32.676-46.922 54.512-65.371z"></path>
      <path d="m510.8 465.71 22.855 25.941c24.605-21.27 45.301-46.68 61.145-75.086l-30.285-16.57c-13.934 24.871-32.113 47.109-53.715 65.715z"></path>
      <use x="70" y="731.429687" xlink:href="#l"></use>
      <use x="111.9375" y="731.429687" xlink:href="#h"></use>
      <use x="140.117188" y="731.429687" xlink:href="#b"></use>
      <use x="178.871094" y="731.429687" xlink:href="#a"></use>
      <use x="217.433594" y="731.429687" xlink:href="#g"></use>
      <use x="244.75" y="731.429687" xlink:href="#b"></use>
      <use x="283.503906" y="731.429687" xlink:href="#f"></use>
      <use x="344.300781" y="731.429687" xlink:href="#e"></use>
      <use x="442.347656" y="731.429687" xlink:href="#d"></use>
      <use x="486.351562" y="731.429687" xlink:href="#c"></use>
      <use x="525.609375" y="731.429687" xlink:href="#k"></use>
      <use x="585.152344" y="731.429687" xlink:href="#a"></use>
      <use x="623.710938" y="731.429687" xlink:href="#j"></use>
      <use x="643.296875" y="731.429687" xlink:href="#i"></use>
    </g>
  </symbol>
</svg>